<svg xmlns="http://www.w3.org/2000/svg" width="64" height="64"><path d="M63.042 39.741c-4.274 17.143-21.64 27.576-38.786 23.301C7.116 58.768-3.318 41.404.959 24.262 5.23 7.118 22.596-3.316 39.738.958c17.146 4.274 27.579 21.64 23.304 38.783z" fill="#f7931a"/><path d="M46.105 27.441c.637-4.258-2.605-6.547-7.038-8.074l1.438-5.768-3.512-.875-1.4 5.616c-.923-.23-1.87-.447-2.813-.662l1.41-5.653-3.51-.875-1.438 5.766a117.48 117.48 0 0 1-2.243-.527l.004-.018-4.842-1.209-.934 3.75s2.605.597 2.55.634c1.422.355 1.68 1.296 1.636 2.042l-1.638 6.571c.098.025.225.061.365.117l-.371-.092-2.296 9.205c-.174.432-.615 1.08-1.61.834.036.051-2.552-.637-2.552-.637l-1.743 4.02 4.57 1.138c.85.213 1.683.436 2.503.646l-1.453 5.834 3.507.875 1.44-5.772c.957.26 1.887.5 2.798.726l-1.435 5.745 3.512.875 1.453-5.823c5.988 1.133 10.49.676 12.385-4.739 1.527-4.36-.076-6.875-3.226-8.515 2.294-.529 4.022-2.038 4.483-5.155zm-8.022 11.25c-1.086 4.36-8.427 2.002-10.808 1.411l1.929-7.729c2.38.594 10.013 1.77 8.879 6.317zm1.086-11.313c-.99 3.966-7.101 1.951-9.083 1.457l1.748-7.01c1.982.494 8.366 1.416 7.335 5.553z" fill="#fff"/></svg>